<svg width="89" height="53" viewBox="0 0 89 53" fill="none" xmlns="http://www.w3.org/2000/svg">
<path fill-rule="evenodd" clip-rule="evenodd" d="M29.5271 9L8.74249 45H50.3117L29.5271 9ZM35.5893 3.5C32.895 -1.16667 26.1592 -1.16666 23.4649 3.5L0.948264 42.5C-1.74604 47.1667 1.62185 53 7.01045 53H52.0438C57.4324 53 60.8002 47.1667 58.1059 42.5L35.5893 3.5Z" fill="#5E44FF"/>
<path fill-rule="evenodd" clip-rule="evenodd" d="M58.5271 9L37.7425 45H79.3117L58.5271 9ZM64.5893 3.5C61.895 -1.16667 55.1592 -1.16666 52.4649 3.5L29.9483 42.5C27.254 47.1667 30.6218 53 36.0104 53H81.0438C86.4324 53 89.8002 47.1667 87.1059 42.5L64.5893 3.5Z" fill="#3B0CBF"/>
<path fill-rule="evenodd" clip-rule="evenodd" d="M64.1681 53L44.0271 18.1147L23.8861 53H64.1681ZM37.7425 45H50.3117L44.0271 34.1147L37.7425 45Z" fill="#5A86F6"/>
</svg>
