<svg width="18" height="18" viewBox="0 0 18 18" fill="none" xmlns="http://www.w3.org/2000/svg">
<path fill-rule="evenodd" clip-rule="evenodd" d="M7.23268 12.5199H11.0479C11.3354 12.5199 11.5739 12.279 11.5739 11.9886C11.5739 11.6982 11.3354 11.4645 11.0479 11.4645H7.23268C6.94514 11.4645 6.70669 11.6982 6.70669 11.9886C6.70669 12.279 6.94514 12.5199 7.23268 12.5199ZM9.60315 7.9228H7.23268C6.94514 7.9228 6.70669 8.16363 6.70669 8.45405C6.70669 8.74447 6.94514 8.97822 7.23268 8.97822H9.60315C9.89069 8.97822 10.1291 8.74447 10.1291 8.45405C10.1291 8.16363 9.89069 7.9228 9.60315 7.9228ZM14.6081 7.30344C14.7729 7.30154 14.9524 7.29947 15.1155 7.29947C15.2909 7.29947 15.4311 7.44113 15.4311 7.61822V13.3132C15.4311 15.0699 14.0215 16.4936 12.2822 16.4936H6.69968C4.87625 16.4936 3.38945 14.999 3.38945 13.1574L3.38945 5.52155C3.38945 3.76488 4.80612 2.32697 6.5524 2.32697L10.2975 2.32697C10.4798 2.32697 10.6201 2.47572 10.6201 2.6528V4.93363C10.6201 6.22988 11.6791 7.29238 12.9625 7.29947C13.2622 7.29947 13.5265 7.30171 13.7578 7.30367C13.9377 7.30519 14.0977 7.30655 14.2389 7.30655C14.3387 7.30655 14.4681 7.30506 14.6081 7.30344ZM14.8015 6.26955C14.225 6.27167 13.5454 6.26955 13.0566 6.26459C12.2809 6.26459 11.642 5.6193 11.642 4.83588V2.96872C11.642 2.66342 12.0088 2.51184 12.2185 2.73213C12.5982 3.13092 13.1201 3.67916 13.6396 4.22483C14.1572 4.76856 14.6724 5.30974 15.042 5.69792C15.2468 5.91255 15.0967 6.26884 14.8015 6.26955Z" fill="white"/>
</svg>
