<svg width="24" height="24" viewBox="0 0 24 24" fill="none" xmlns="http://www.w3.org/2000/svg">
<path d="M17.25 10.25L17.25 6.75M17.25 6.75H13.75M17.25 6.75L12.5833 11.4167M10.8333 7.91667H9.55C8.56991 7.91667 8.07986 7.91667 7.70552 8.10741C7.37623 8.27518 7.10852 8.5429 6.94074 8.87218C6.75 9.24653 6.75 9.73657 6.75 10.7167V14.45C6.75 15.4301 6.75 15.9201 6.94074 16.2945C7.10852 16.6238 7.37623 16.8915 7.70552 17.0593C8.07986 17.25 8.56991 17.25 9.55 17.25H13.2833C14.2634 17.25 14.7535 17.25 15.1278 17.0593C15.4571 16.8915 15.7248 16.6238 15.8926 16.2945C16.0833 15.9201 16.0833 15.4301 16.0833 14.45V13.1667" stroke="white" stroke-width="1.5" stroke-linecap="round" stroke-linejoin="round"/>
</svg>
