<svg width="32" height="32" viewBox="0 0 32 32" fill="none" xmlns="http://www.w3.org/2000/svg">
<path d="M18.01 13.5324L16.2321 15.1878L14.5817 11.8575L15.4343 9.94266C15.6498 9.5607 16.0022 9.55566 16.2177 9.94266L18.01 13.5324Z" fill="#FFA000"/>
<path d="M16.2328 15.187L9.58234 21.3726L14.5824 11.8575L16.2328 15.187Z" fill="#F57F17"/>
<path d="M19.9594 11.0006C20.278 10.6972 20.6059 10.7995 20.6888 11.2305L22.4177 21.2891L16.6832 24.7318C16.4821 24.8442 15.9488 24.8881 15.9488 24.8881C15.9488 24.8881 15.4638 24.829 15.2779 24.7267L9.58234 21.3727L19.9594 11.0006Z" fill="#FFCA28"/>
<path d="M14.5824 11.8575L9.58234 21.3727L11.8107 7.46494C11.8943 7.03397 12.1386 6.99001 12.3591 7.37197L14.5824 11.8575Z" fill="#FFA000"/>
</svg>
