<svg width="24" height="24" viewBox="0 0 24 24" fill="none" xmlns="http://www.w3.org/2000/svg">
<path d="M12 5.49792C8.3186 5.49792 5.33334 8.48266 5.33334 12.1646C5.33334 15.1102 7.24355 17.6091 9.89245 18.4907C10.2256 18.5524 10.348 18.346 10.348 18.1699C10.348 18.011 10.3417 17.4858 10.3389 16.9287C8.48419 17.332 8.09283 16.1421 8.09283 16.1421C7.78957 15.3716 7.35262 15.1667 7.35262 15.1667C6.74778 14.7529 7.39821 14.7614 7.39821 14.7614C8.06768 14.8084 8.42019 15.4484 8.42019 15.4484C9.01478 16.4676 9.97977 16.1729 10.3602 16.0027C10.42 15.5717 10.5928 15.2777 10.7835 15.1112C9.30272 14.9426 7.74607 14.3709 7.74607 11.8164C7.74607 11.0886 8.0065 10.4939 8.433 10.027C8.36377 9.85908 8.1356 9.18104 8.49757 8.26274C8.49757 8.26274 9.05739 8.08356 10.3314 8.94612C10.8631 8.79836 11.4335 8.72432 12 8.72181C12.5666 8.72432 13.1374 8.79836 13.6701 8.94612C14.9426 8.08356 15.5017 8.26274 15.5017 8.26274C15.8645 9.18104 15.6362 9.85908 15.567 10.027C15.9945 10.4939 16.2531 11.0886 16.2531 11.8164C16.2531 14.377 14.6935 14.9408 13.209 15.1058C13.4481 15.3127 13.6612 15.7185 13.6612 16.3404C13.6612 17.2324 13.6535 17.9503 13.6535 18.1699C13.6535 18.3474 13.7735 18.5552 14.1114 18.4898C16.7589 17.6072 18.6667 15.1092 18.6667 12.1646C18.6667 8.48266 15.6818 5.49792 12 5.49792Z" fill="white"/>
<path d="M7.83023 14.9948C7.81559 15.0279 7.76341 15.0378 7.71599 15.0151C7.66762 14.9934 7.64043 14.9482 7.65612 14.9149C7.6705 14.8808 7.72268 14.8713 7.77094 14.8942C7.81941 14.9159 7.84702 14.9615 7.83023 14.9948ZM8.15817 15.2874C8.12638 15.3168 8.06421 15.3031 8.02202 15.2566C7.97841 15.2101 7.97025 15.148 8.00251 15.118C8.0353 15.0886 8.09558 15.1023 8.13929 15.1488C8.1829 15.1959 8.19137 15.2576 8.15812 15.2874L8.15817 15.2874ZM8.38315 15.6617C8.34227 15.6901 8.27545 15.6635 8.23419 15.6042C8.19336 15.545 8.19336 15.4739 8.23508 15.4454C8.27649 15.4169 8.34227 15.4425 8.3841 15.5013C8.42488 15.5616 8.42488 15.6327 8.3831 15.6618L8.38315 15.6617ZM8.76359 16.0953C8.72704 16.1356 8.64924 16.1248 8.59224 16.0698C8.534 16.0161 8.51774 15.9398 8.55439 15.8995C8.59136 15.8591 8.66963 15.8704 8.72704 15.925C8.78492 15.9786 8.80259 16.0555 8.76364 16.0953H8.76359ZM9.25528 16.2417C9.23923 16.2939 9.16425 16.3176 9.08875 16.2955C9.01335 16.2726 8.964 16.2115 8.97921 16.1587C8.9949 16.1061 9.07019 16.0814 9.14627 16.1052C9.22156 16.1279 9.27102 16.1886 9.25533 16.2417H9.25528ZM9.81495 16.3038C9.81683 16.3588 9.75278 16.4044 9.67352 16.4054C9.59378 16.4071 9.52931 16.3626 9.52847 16.3085C9.52847 16.253 9.59106 16.2078 9.67074 16.2065C9.75001 16.205 9.81495 16.2492 9.81495 16.3038ZM10.3647 16.2827C10.3742 16.3364 10.3191 16.3915 10.2404 16.4061C10.163 16.4202 10.0914 16.3871 10.0815 16.334C10.0719 16.279 10.128 16.2239 10.2053 16.2096C10.2841 16.1959 10.3546 16.2282 10.3647 16.2827Z" fill="white"/>
</svg>
