<svg width="57" height="56" viewBox="0 0 57 56" fill="none" xmlns="http://www.w3.org/2000/svg">
<path d="M20.0982 23.5323H25.966V23.9964H20.6361V27.4897H25.6482V27.9539H20.6361V31.7892H26.0272V32.2533H20.0982V23.5323ZM26.4917 23.5323H27.1152L29.8779 27.3676L32.7018 23.5323L36.5428 18.6606L30.2325 27.7706L33.4842 32.2533H32.8363L29.8779 28.1737L26.9073 32.2533H26.2717L29.5479 27.7706L26.4917 23.5323ZM33.7165 23.9964V23.5323H40.4034V23.9964H37.3228V32.2533H36.7849V23.9964H33.7165Z" fill="white"/>
<path d="M12.7573 23.5323H13.4297L22.7011 37.3394L18.8697 32.2533L13.3197 24.1919L13.2952 32.2533H12.7573V23.5323Z" fill="white"/>
<path d="M40.3492 31.6491C40.4604 31.6491 40.5416 31.5643 40.5416 31.4548C40.5416 31.3453 40.4604 31.2606 40.3492 31.2606C40.2393 31.2606 40.1569 31.3453 40.1569 31.4548C40.1569 31.5643 40.2393 31.6491 40.3492 31.6491ZM40.8778 31.138C40.8778 31.4613 41.112 31.6725 41.4534 31.6725C41.8171 31.6725 42.0369 31.4548 42.0369 31.0768V29.7457H41.7438V31.0754C41.7438 31.2853 41.6379 31.3975 41.4508 31.3975C41.2833 31.3975 41.1695 31.2932 41.1656 31.138H40.8778ZM42.4202 31.1211C42.4411 31.4574 42.7224 31.6725 43.1411 31.6725C43.5885 31.6725 43.8685 31.447 43.8685 31.0872C43.8685 30.8043 43.7088 30.6478 43.3216 30.5579L43.1136 30.507C42.8676 30.4497 42.7682 30.3728 42.7682 30.2385C42.7682 30.069 42.9226 29.9582 43.1541 29.9582C43.3739 29.9582 43.5257 30.0664 43.5532 30.2398H43.8384C43.8214 29.923 43.5414 29.7001 43.1581 29.7001C42.746 29.7001 42.4712 29.923 42.4712 30.258C42.4712 30.5344 42.6269 30.6987 42.9684 30.7782L43.2117 30.8369C43.4616 30.8955 43.5715 30.9816 43.5715 31.125C43.5715 31.2919 43.3988 31.4131 43.1633 31.4131C42.9108 31.4131 42.7355 31.2997 42.7106 31.1211H42.4202Z" fill="white"/>
</svg>
