<svg width="57" height="56" viewBox="0 0 57 56" fill="none" xmlns="http://www.w3.org/2000/svg">
<path d="M27.0391 12.7764C27.8105 12.3348 28.8152 12.3328 29.586 12.7764C33.4636 14.9674 37.3423 17.155 41.2192 19.3473C41.9484 19.7581 42.4362 20.5696 42.4288 21.4098V34.5919C42.4342 35.4669 41.8982 36.2978 41.1289 36.6992C37.2641 38.8782 33.4013 41.0598 29.5371 43.2387C28.7498 43.6889 27.7248 43.6543 26.9621 43.1672C25.8034 42.4955 24.6427 41.8271 23.4839 41.1561C23.2472 41.0149 22.9802 40.9026 22.813 40.673C22.9608 40.4738 23.2251 40.4489 23.4398 40.362C23.9235 40.2082 24.3677 39.9613 24.812 39.7217C24.9244 39.6448 25.0616 39.6743 25.1693 39.7431C26.1601 40.3112 27.1421 40.8958 28.1362 41.4585C28.3483 41.5809 28.5631 41.4184 28.7443 41.3173C32.5369 39.1738 36.3341 37.0384 40.126 34.8943C40.2665 34.8267 40.3442 34.6775 40.3328 34.5236C40.3355 30.1751 40.3335 25.8259 40.3341 21.4774C40.3502 21.3028 40.2492 21.1422 40.0913 21.0708C36.2398 18.9018 32.3904 16.7295 28.5397 14.56C28.473 14.5141 28.3939 14.4895 28.313 14.4894C28.232 14.4893 28.1529 14.5136 28.0861 14.5593C24.2353 16.7295 20.3865 18.9038 16.5358 21.0727C16.3785 21.1442 16.2729 21.3021 16.2916 21.4774C16.2923 25.8259 16.2916 30.1751 16.2916 34.5243C16.2849 34.5994 16.3014 34.6747 16.3388 34.7402C16.3763 34.8056 16.4329 34.858 16.501 34.8903C17.5286 35.473 18.5575 36.0516 19.5858 36.6323C20.1651 36.9441 20.8763 37.1294 21.5145 36.8905C22.0777 36.6885 22.4725 36.1138 22.4618 35.5158C22.4671 31.1927 22.4591 26.8689 22.4658 22.5465C22.4517 22.3545 22.6338 22.196 22.8203 22.214C23.3141 22.2107 23.8085 22.2074 24.3022 22.2154C24.5083 22.2107 24.6501 22.4174 24.6247 22.6107C24.6227 26.9612 24.63 31.3118 24.6213 35.6622C24.6227 36.8217 24.1463 38.0833 23.0739 38.6506C21.7526 39.335 20.1196 39.1899 18.8144 38.5336C17.6844 37.9696 16.6061 37.304 15.4961 36.6998C14.7248 36.3006 14.1915 35.4663 14.197 34.592V21.4098C14.1889 20.5522 14.696 19.726 15.4479 19.3212C19.3121 17.1405 23.1756 14.9581 27.0391 12.7764Z" fill="#8CC84B"/>
<path d="M30.4101 21.9077C32.0954 21.7992 33.8997 21.8434 35.4162 22.6736C36.5904 23.3099 37.2414 24.6452 37.2621 25.9496C37.2293 26.1256 37.0454 26.2227 36.8774 26.2106C36.3884 26.2099 35.8993 26.2172 35.4104 26.2073C35.2029 26.2152 35.0824 26.024 35.0563 25.8406C34.9158 25.2165 34.5754 24.5983 33.988 24.2972C33.0861 23.8457 32.0405 23.8684 31.0571 23.8778C30.3392 23.916 29.5673 23.9781 28.9591 24.4003C28.4921 24.7201 28.3503 25.3656 28.5169 25.8855C28.6741 26.2588 29.105 26.3792 29.4576 26.4903C31.4886 27.0214 33.6408 26.9686 35.6331 27.6677C36.4579 27.9526 37.2648 28.5067 37.5471 29.3703C37.9164 30.5277 37.7545 31.9112 36.931 32.8404C36.2632 33.605 35.2906 34.0212 34.3205 34.2473C33.03 34.535 31.6907 34.5423 30.3801 34.4146C29.1477 34.2741 27.8653 33.9503 26.914 33.1106C26.1004 32.4043 25.7031 31.3037 25.7425 30.2414C25.752 30.062 25.9306 29.9369 26.1024 29.9516C26.5948 29.9477 27.0873 29.9463 27.5797 29.9523C27.7763 29.9382 27.9222 30.1082 27.9322 30.2936C28.0231 30.8883 28.2466 31.5124 28.7651 31.865C29.7659 32.5106 31.0217 32.4664 32.1676 32.4845C33.1169 32.4424 34.1827 32.4296 34.9574 31.8022C35.3661 31.4443 35.4872 30.8455 35.3768 30.3304C35.2571 29.8955 34.8022 29.6928 34.4115 29.5603C32.4065 28.926 30.2302 29.1562 28.2446 28.439C27.4385 28.1541 26.659 27.6155 26.3493 26.7873C25.9172 25.6152 26.1152 24.1655 27.025 23.2677C27.9121 22.3746 29.1926 22.0306 30.4101 21.9075V21.9077Z" fill="#8CC84B"/>
</svg>
