<svg width="57" height="56" viewBox="0 0 57 56" fill="none" xmlns="http://www.w3.org/2000/svg">
<path d="M28.4693 30.7429C29.9926 30.7429 31.2275 29.5149 31.2275 28C31.2275 26.4852 29.9926 25.2572 28.4693 25.2572C26.946 25.2572 25.7112 26.4852 25.7112 28C25.7112 29.5149 26.946 30.7429 28.4693 30.7429Z" fill="#61DAFB"/>
<path fill-rule="evenodd" clip-rule="evenodd" d="M15.5005 26.5568C14.8751 27.1183 14.6695 27.6079 14.6695 28C14.6695 28.3922 14.8751 28.8817 15.5005 29.4432C16.1256 30.0043 17.0865 30.5554 18.3592 31.0387C20.8976 32.0025 24.4718 32.6195 28.4693 32.6195C32.4668 32.6195 36.041 32.0025 38.5794 31.0387C39.8521 30.5554 40.813 30.0043 41.4381 29.4432C42.0635 28.8817 42.2691 28.3922 42.2691 28C42.2691 27.6079 42.0635 27.1183 41.4381 26.5568C40.813 25.9957 39.8521 25.4446 38.5794 24.9613C36.041 23.9975 32.4668 23.3806 28.4693 23.3806C24.4718 23.3806 20.8976 23.9975 18.3592 24.9613C17.0865 25.4446 16.1256 25.9957 15.5005 26.5568ZM17.6493 23.0916C20.4673 22.0216 24.2931 21.3806 28.4693 21.3806C32.6455 21.3806 36.4713 22.0216 39.2893 23.0916C40.6949 23.6252 41.9013 24.285 42.7741 25.0685C43.6465 25.8516 44.2691 26.8404 44.2691 28C44.2691 29.1596 43.6465 30.1484 42.7741 30.9315C41.9013 31.715 40.6949 32.3748 39.2893 32.9084C36.4713 33.9784 32.6455 34.6195 28.4693 34.6195C24.2931 34.6195 20.4673 33.9784 17.6493 32.9084C16.2437 32.3748 15.0373 31.715 14.1645 30.9315C13.2921 30.1484 12.6695 29.1596 12.6695 28C12.6695 26.8404 13.2921 25.8516 14.1645 25.0685C15.0373 24.285 16.2437 23.6252 17.6493 23.0916Z" fill="#61DAFB"/>
<path fill-rule="evenodd" clip-rule="evenodd" d="M23.2498 16.1117C22.4491 15.8541 21.9172 15.9205 21.5715 16.119C21.2257 16.3175 20.9019 16.7424 20.7259 17.5607C20.5499 18.3792 20.5504 19.4815 20.7658 20.8184C21.1954 23.4849 22.4446 26.8702 24.4427 30.3118C26.4409 33.7535 28.7644 36.522 30.8718 38.2252C31.9283 39.0791 32.888 39.6307 33.6888 39.8884C34.4895 40.146 35.0214 40.0795 35.3671 39.881C35.7129 39.6825 36.0367 39.2577 36.2127 38.4393C36.3887 37.6208 36.3882 36.5185 36.1728 35.1817C35.7432 32.5151 34.494 29.1298 32.4958 25.6882C30.4977 22.2465 28.1742 19.478 26.0668 17.7748C25.0103 16.9209 24.0506 16.3693 23.2498 16.1117ZM27.3275 16.2263C29.6696 18.1193 32.1416 21.0947 34.2303 24.6924C36.319 28.29 37.6742 31.9067 38.1517 34.8701C38.3898 36.3483 38.4185 37.718 38.1724 38.8618C37.9264 40.0057 37.3769 41.0333 36.3713 41.6106C35.3657 42.188 34.196 42.1474 33.0768 41.7874C31.9577 41.4274 30.7792 40.7178 29.611 39.7737C27.269 37.8808 24.797 34.9053 22.7083 31.3076C20.6196 27.71 19.2643 24.0933 18.7869 21.1299C18.5488 19.6517 18.5201 18.282 18.7661 17.1382C19.0122 15.9944 19.5617 14.9667 20.5673 14.3894C21.5729 13.812 22.7426 13.8526 23.8617 14.2126C24.9809 14.5727 26.1593 15.2822 27.3275 16.2263Z" fill="#61DAFB"/>
<path fill-rule="evenodd" clip-rule="evenodd" d="M36.2127 17.5608C36.0367 16.7424 35.7129 16.3175 35.3671 16.119C35.0214 15.9205 34.4895 15.8541 33.6888 16.1117C32.888 16.3693 31.9283 16.9209 30.8718 17.7748C28.7644 19.4781 26.4409 22.2466 24.4427 25.6882C22.4446 29.1299 21.1954 32.5151 20.7658 35.1817C20.5504 36.5185 20.5499 37.6209 20.7259 38.4393C20.9019 39.2577 21.2257 39.6825 21.5715 39.881C21.9172 40.0796 22.4491 40.146 23.2498 39.8884C24.0506 39.6308 25.0103 39.0792 26.0668 38.2252C28.1742 36.522 30.4977 33.7535 32.4958 30.3118C34.494 26.8702 35.7432 23.4849 36.1728 20.8184C36.3882 19.4815 36.3887 18.3792 36.2127 17.5608ZM38.1517 21.1299C37.6742 24.0934 36.319 27.71 34.2303 31.3077C32.1416 34.9053 29.6696 37.8808 27.3275 39.7737C26.1594 40.7179 24.9809 41.4274 23.8618 41.7874C22.7426 42.1475 21.5729 42.188 20.5673 41.6107C19.5617 41.0333 19.0122 40.0057 18.7661 38.8618C18.5201 37.718 18.5488 36.3483 18.7869 34.8701C19.2644 31.9067 20.6196 28.2901 22.7083 24.6924C24.797 21.0947 27.269 18.1193 29.611 16.2264C30.7792 15.2822 31.9577 14.5727 33.0768 14.2126C34.196 13.8526 35.3657 13.812 36.3713 14.3894C37.3769 14.9668 37.9264 15.9944 38.1725 17.1382C38.4185 18.2821 38.3898 19.6518 38.1517 21.1299Z" fill="#61DAFB"/>
</svg>
