<svg width="56" height="56" viewBox="0 0 56 56" fill="none" xmlns="http://www.w3.org/2000/svg">
<path d="M32.1304 31.2542L31.5357 32.2867C31.3566 32.5978 31.025 32.7895 30.6661 32.7895H26.1109C25.752 32.7895 25.4203 32.5978 25.2412 32.2867L24.6466 31.2542H32.1304ZM33.7951 28.3637L32.7466 30.1842H24.0303L22.9819 28.3637H33.7951ZM32.7852 25.5371L33.7968 27.2937H22.9802L23.9919 25.5371H32.7852ZM30.6661 22.865C31.025 22.865 31.3566 23.0567 31.5357 23.3678L32.1689 24.4671H24.6081L25.2412 23.3678C25.4203 23.0567 25.752 22.865 26.1109 22.865H30.6661Z" fill="#00435B"/>
<path d="M19.4812 22.3859C18.9766 19.9391 18.8683 18.0624 19.1945 16.6997C19.3885 15.8892 19.7432 15.228 20.2825 14.751C20.8519 14.2474 21.5717 14.0003 22.3805 14.0003C23.7148 14.0003 25.1175 14.6087 26.6165 15.7646C27.2279 16.2361 27.8625 16.8044 28.5215 17.4698C28.574 17.4023 28.6333 17.3386 28.6993 17.2798C30.5625 15.6194 32.1312 14.5878 33.4728 14.19C34.2706 13.9536 35.0196 13.931 35.7017 14.1606C36.4216 14.4028 36.9953 14.9037 37.4001 15.6052C38.068 16.763 38.2442 18.2843 37.9951 20.1628C37.8936 20.9285 37.7201 21.7625 37.4749 22.6662C37.5674 22.6774 37.6601 22.6979 37.7519 22.7283C40.1159 23.5117 41.7898 24.3541 42.8032 25.3168C43.4062 25.8897 43.8 26.5274 43.9423 27.2333C44.0925 27.9784 43.946 28.7257 43.5418 29.4267C42.8751 30.5828 41.6492 31.4946 39.9027 32.2168C39.2014 32.5068 38.408 32.7694 37.5216 33.0057C37.562 33.097 37.5934 33.194 37.6144 33.2958C38.119 35.7426 38.2273 37.6192 37.9011 38.982C37.7071 39.7925 37.3525 40.4537 36.8131 40.9306C36.2438 41.4343 35.5239 41.6814 34.7151 41.6814C33.3808 41.6814 31.9782 41.073 30.4791 39.917C29.8612 39.4405 29.2196 38.8651 28.5531 38.1906C28.4845 38.2978 28.4003 38.3976 28.3007 38.4863C26.4375 40.1467 24.8688 41.1783 23.5272 41.5761C22.7294 41.8126 21.9804 41.8351 21.2983 41.6055C20.5784 41.3633 20.0047 40.8624 19.5999 40.1609C18.932 39.0031 18.7558 37.4818 19.0049 35.6033C19.1101 34.81 19.2926 33.9432 19.552 33.0017C19.4506 32.9914 19.3488 32.97 19.2481 32.9366C16.8841 32.1532 15.2102 31.3107 14.1968 30.348C13.5938 29.7752 13.2 29.1375 13.0577 28.4316C12.9075 27.6865 13.054 26.9392 13.4582 26.2382C14.1249 25.0821 15.3508 24.1703 17.0973 23.448C17.8194 23.1494 18.6394 22.8798 19.5579 22.6382C19.5252 22.5579 19.4994 22.4737 19.4812 22.3859Z" fill="#002B3B"/>
<path d="M35.965 33.5363C36.2 33.4946 36.4253 33.6454 36.4777 33.8766L36.4806 33.8903L36.5057 34.0204C37.3182 38.2922 36.7458 40.4281 34.7886 40.4281C32.8737 40.4281 30.436 38.6056 27.4755 34.9605C27.41 34.8799 27.3747 34.7791 27.3756 34.6753C27.3778 34.4337 27.5718 34.2386 27.8117 34.2333L27.8256 34.2332L27.9815 34.2343C29.2273 34.241 30.4384 34.1976 31.6148 34.104C33.0035 33.9933 34.4535 33.8042 35.965 33.5363ZM22.5235 30.3072L22.531 30.3199L22.6092 30.4564C23.236 31.5463 23.8892 32.5807 24.5686 33.5597C25.3686 34.7126 26.2684 35.8797 27.2678 37.061C27.4224 37.2438 27.4047 37.5151 27.2303 37.6764L27.2189 37.6865L27.1183 37.7731C23.8117 40.6062 21.6626 41.1719 20.6709 39.4699C19.7002 37.8038 20.0521 34.7746 21.7268 30.3821C21.7635 30.2856 21.8327 30.2048 21.9224 30.1536C22.1321 30.0339 22.3979 30.1031 22.5235 30.3072ZM37.6429 24.0039L37.6565 24.0083L37.781 24.0513C41.8624 25.4711 43.413 27.0313 42.4329 28.7321C41.4743 30.3955 38.6875 31.6066 34.0725 32.3654C33.9696 32.3824 33.8639 32.3627 33.774 32.3098C33.5617 32.185 33.4907 31.9116 33.6156 31.6993C34.2766 30.5749 34.8719 29.4561 35.4015 28.343C36.0023 27.0805 36.566 25.7255 37.0927 24.2778C37.1725 24.0583 37.4072 23.9391 37.6294 24L37.6429 24.0039ZM23.2258 23.289C23.4382 23.4139 23.5092 23.6872 23.3843 23.8996C22.7233 25.024 22.128 26.1427 21.5983 27.2559C20.9976 28.5184 20.4339 29.8734 19.9072 31.3211C19.8257 31.5451 19.5831 31.6647 19.3569 31.595L19.3433 31.5905L19.2189 31.5476C15.1374 30.1278 13.5868 28.5675 14.5669 26.8668C15.5255 25.2034 18.3124 23.9922 22.9274 23.2334C23.0303 23.2165 23.1359 23.2362 23.2258 23.289ZM36.3289 16.2962C37.2996 17.9622 36.9476 20.9914 35.273 25.3839C35.2362 25.4805 35.167 25.5612 35.0774 25.6124C34.8677 25.7321 34.6019 25.663 34.4764 25.4588L34.4689 25.4461L34.3907 25.3096C33.7638 24.2197 33.1106 23.1853 32.4313 22.2064C31.6312 21.0534 30.7314 19.8863 29.7321 18.705C29.5775 18.5223 29.5951 18.251 29.7695 18.0896L29.7809 18.0795L29.8815 17.993C33.188 15.1598 35.3372 14.5941 36.3289 16.2962ZM22.3784 15.2823C24.2934 15.2823 26.7311 17.1048 29.6916 20.7499C29.757 20.8305 29.7923 20.9313 29.7914 21.0351C29.7893 21.2767 29.5953 21.4718 29.3554 21.4771L29.3415 21.4772L29.1856 21.4761C27.9398 21.4693 26.7287 21.5128 25.5523 21.6064C24.1636 21.7169 22.7135 21.9062 21.2021 22.174C20.9671 22.2157 20.7418 22.0649 20.6894 21.8337L20.6865 21.82L20.6614 21.6899C19.8489 17.4182 20.4212 15.2823 22.3784 15.2823Z" fill="#FF4154"/>
<path d="M26.4771 22.9208H30.3007C30.8599 22.9208 31.3764 23.2199 31.6548 23.7049L33.5746 27.0502C33.8508 27.5315 33.8508 28.1231 33.5746 28.6044L31.6548 31.9497C31.3764 32.4346 30.8599 32.7338 30.3007 32.7338H26.4771C25.9179 32.7338 25.4014 32.4346 25.1231 31.9497L23.2032 28.6044C22.927 28.1231 22.927 27.5315 23.2032 27.0502L25.1231 23.7049C25.4014 23.2199 25.9179 22.9208 26.4771 22.9208ZM29.718 23.9305C30.2775 23.9305 30.7942 24.2298 31.0724 24.7152L32.4112 27.0508C32.6868 27.5317 32.6868 28.1227 32.4112 28.6035L31.0724 30.9391C30.7942 31.4245 30.2775 31.7239 29.718 31.7239H27.0599C26.5003 31.7239 25.9837 31.4245 25.7054 30.9391L24.3667 28.6035C24.091 28.1227 24.091 27.5317 24.3667 27.0508L25.7054 24.7152C25.9837 24.2298 26.5003 23.9305 27.0599 23.9305H29.718ZM29.0899 25.0348H27.688C27.1291 25.0348 26.6128 25.3336 26.3344 25.8182L25.6269 27.0495C25.3502 27.5311 25.3502 28.1234 25.6269 28.605L26.3344 29.8362C26.6128 30.3209 27.1291 30.6196 27.688 30.6196H29.0899C29.6488 30.6196 30.165 30.3209 30.4435 29.8362L31.151 28.605C31.4277 28.1234 31.4277 27.5311 31.151 27.0495L30.4435 25.8182C30.165 25.3337 29.6488 25.0348 29.0899 25.0348ZM28.485 26.0918C29.0435 26.0918 29.5595 26.3902 29.8381 26.8742L29.9384 27.0485C30.2159 27.5306 30.2159 28.1239 29.9384 28.606L29.8381 28.7803C29.5595 29.2643 29.0435 29.5627 28.485 29.5627H28.2928C27.7343 29.5627 27.2183 29.2643 26.9397 28.7803L26.8394 28.606C26.5619 28.1239 26.5619 27.5306 26.8394 27.0485L26.9397 26.8742C27.2183 26.3902 27.7343 26.0918 28.2928 26.0918H28.485ZM28.3891 27.1331C28.1406 27.1331 27.9113 27.2654 27.7872 27.4802C27.6631 27.6949 27.6631 27.9596 27.7872 28.1744C27.9113 28.3892 28.1405 28.5214 28.3886 28.5214C28.6371 28.5214 28.8664 28.3892 28.9905 28.1744C29.1146 27.9596 29.1146 27.695 28.9905 27.4802C28.8665 27.2654 28.6372 27.1331 28.3891 27.1331ZM22.7572 27.8273H24.007Z" fill="#FFD94C"/>
</svg>
