<svg width="57" height="56" viewBox="0 0 57 56" fill="none" xmlns="http://www.w3.org/2000/svg">
<path d="M34.2526 33.8596C35.4006 33.7407 36.2716 32.751 36.232 31.5632C36.1925 30.3755 35.2027 29.4253 34.015 29.4253H33.9359C32.7084 29.4649 31.7583 30.4942 31.798 31.7215C31.8376 32.3154 32.075 32.8301 32.4314 33.1864C31.0853 35.8391 29.0266 37.7791 25.9386 39.4023C23.8403 40.5109 21.6629 40.9068 19.4855 40.6298C17.7039 40.3922 16.3182 39.6004 15.4471 38.2938C14.1803 36.3538 14.0616 34.2554 15.1305 32.1571C15.8828 30.6526 17.0703 29.544 17.8226 28.9897C17.6643 28.475 17.4267 27.6041 17.3079 26.9706C11.5673 31.1278 12.1612 36.7497 13.9032 39.4023C15.2096 41.382 17.8622 42.6093 20.7919 42.6093C21.5837 42.6093 22.3754 42.5301 23.1673 42.3322C28.2349 41.3424 32.0752 38.3334 34.2526 33.8596ZM41.2205 28.9502C38.2116 25.4265 33.7775 23.4866 28.7099 23.4866H28.0765C27.7202 22.7739 26.9679 22.2988 26.1366 22.2988H26.0573C24.8301 22.3384 23.88 23.3677 23.9195 24.5951C23.9592 25.7828 24.9489 26.7331 26.1366 26.7331H26.2157C27.0867 26.6934 27.8389 26.1392 28.1556 25.3869H28.8683C31.8772 25.3869 34.7276 26.2579 37.3011 27.9604C39.2805 29.2669 40.7058 30.9694 41.4976 33.0281C42.1706 34.6909 42.131 36.3142 41.4183 37.7C40.3099 39.7983 38.4492 40.9465 35.9946 40.9465C34.4109 40.9465 32.9065 40.4713 32.1147 40.115C31.6792 40.5109 30.8873 41.1443 30.3331 41.5404C32.0355 42.3321 33.7775 42.7677 35.4403 42.7677C39.2409 42.7677 42.0519 40.6693 43.1208 38.571C44.2689 36.2746 44.1897 32.3154 41.2205 28.9502ZM21.1086 34.5325C21.1482 35.7203 22.1379 36.6704 23.3256 36.6704H23.4049C24.6322 36.6309 25.5823 35.6014 25.5427 34.3741C25.5032 33.1863 24.5133 32.2362 23.3256 32.2362H23.2465C23.1673 32.2362 23.0484 32.2362 22.9694 32.2757C21.3462 29.5835 20.6732 26.6538 20.9108 23.4864C21.069 21.1109 21.8609 19.0521 23.2465 17.3497C24.3946 15.8848 26.6116 15.1721 28.1161 15.1326C32.3126 15.0534 34.0941 20.2795 34.213 22.3779C34.7276 22.4966 35.5986 22.7738 36.1925 22.9718C35.7173 16.558 31.7583 13.2323 27.9578 13.2323C24.3946 13.2323 21.1086 15.8058 19.8021 19.6066C17.981 24.6743 19.1686 29.544 21.3857 33.3844C21.1878 33.6615 21.069 34.097 21.1086 34.5326V34.5325Z" fill="#764ABC"/>
</svg>
