<svg width="57" height="56" viewBox="0 0 57 56" fill="none" xmlns="http://www.w3.org/2000/svg">
<path d="M28.3129 18.6692C24.1646 18.6692 21.5721 20.7427 20.5349 24.8895C22.0907 22.8159 23.9055 22.0386 25.9794 22.5568C27.1629 22.8525 28.0087 23.7111 28.9451 24.6611C30.4701 26.2087 32.2351 27.9998 36.0909 27.9998C40.2387 27.9998 42.8317 25.9262 43.8684 21.7791C42.3131 23.8527 40.4982 24.6304 38.4239 24.1122C37.2408 23.8165 36.3951 22.9579 35.4587 22.0079C33.9337 20.4603 32.1682 18.6692 28.3129 18.6692ZM20.5349 27.9998C16.387 27.9998 13.7941 30.0733 12.7573 34.2204C14.3127 32.1469 16.1275 31.3692 18.2019 31.8878C19.3849 32.1838 20.2307 33.0421 21.1671 33.9917C22.6921 35.5393 24.4575 37.3308 28.3129 37.3308C32.4612 37.3308 35.0537 35.2572 36.0909 31.1101C34.5351 33.1837 32.7203 33.9613 30.6463 33.4428C29.4629 33.1475 28.6171 32.2885 27.6807 31.3389C26.1557 29.7913 24.3906 27.9998 20.5349 27.9998Z" fill="#06B6D4"/>
</svg>
