<svg width="32" height="32" viewBox="0 0 32 32" fill="none" xmlns="http://www.w3.org/2000/svg">
<path d="M16 10.6681C13.6295 10.6681 12.1481 11.853 11.5554 14.2225C12.4444 13.0376 13.4815 12.5935 14.6666 12.8896C15.3428 13.0585 15.8261 13.5492 16.3612 14.092C17.2327 14.9764 18.2413 15.9999 20.4445 15.9999C22.8147 15.9999 24.2964 14.815 24.8889 12.4452C24.0001 13.6301 22.963 14.0745 21.7777 13.7784C21.1017 13.6094 20.6184 13.1188 20.0833 12.5759C19.2118 11.6916 18.203 10.6681 16 10.6681ZM11.5554 15.9999C9.1852 15.9999 7.70353 17.1847 7.11108 19.5545C7.99986 18.3696 9.03692 17.9252 10.2223 18.2216C10.8983 18.3908 11.3816 18.8812 11.9167 19.4238C12.7881 20.3081 13.7969 21.3318 16 21.3318C18.3704 21.3318 19.8519 20.147 20.4445 17.7772C19.5555 18.9621 18.5185 19.4065 17.3334 19.1101C16.6571 18.9414 16.1738 18.4506 15.6387 17.9079C14.7673 17.0236 13.7587 15.9999 11.5554 15.9999Z" fill="#06B6D4"/>
</svg>
