<svg width="32" height="32" viewBox="0 0 32 32" fill="none" xmlns="http://www.w3.org/2000/svg">
<path d="M7.11108 7.11108H24.8889V24.8889H7.11108V7.11108Z" fill="#017ACB"/>
<path d="M15.6472 13.6944H16.5V15.1666H14.1944V21.7166L14.1333 21.7333C14.05 21.7555 12.9527 21.7555 12.7166 21.7305L12.5277 21.7138V15.1666H10.2222V13.6944L10.9527 13.6861C11.3527 13.6805 12.3805 13.6805 13.2361 13.6861C14.0916 13.6916 15.175 13.6944 15.6472 13.6944ZM22.1555 21.0222C21.8166 21.3805 21.4527 21.5805 20.8472 21.7444C20.5833 21.8166 20.5389 21.8194 19.9444 21.8166C19.35 21.8138 19.3027 21.8138 19.0138 21.7388C18.2666 21.5472 17.6638 21.1722 17.2527 20.6416C17.1361 20.4916 16.9444 20.1805 16.9444 20.1416C16.9444 20.1305 16.9722 20.1055 17.0083 20.0888C17.0444 20.0722 17.1194 20.0249 17.1805 19.9888C17.2416 19.9527 17.3527 19.8861 17.4277 19.8472C17.5027 19.8083 17.7194 19.6805 17.9083 19.5666C18.0972 19.4527 18.2694 19.3611 18.2888 19.3611C18.3083 19.3611 18.3444 19.3999 18.3722 19.4472C18.5388 19.7277 18.9277 20.0861 19.2027 20.2083C19.3722 20.2805 19.7472 20.3611 19.9277 20.3611C20.0944 20.3611 20.4 20.2888 20.5639 20.2138C20.7389 20.1333 20.8277 20.0527 20.9333 19.8916C21.0055 19.7777 21.0139 19.7472 21.0111 19.5305C21.0111 19.3305 21 19.2749 20.9444 19.1833C20.7889 18.9277 20.5777 18.7944 19.7222 18.4166C18.8388 18.0249 18.4416 17.7916 18.1194 17.4777C17.8805 17.2444 17.8333 17.1805 17.6833 16.8888C17.4888 16.5138 17.4638 16.3916 17.4611 15.8333C17.4583 15.4416 17.4666 15.3138 17.5083 15.1805C17.5666 14.9805 17.7555 14.5944 17.8416 14.4972C18.0194 14.2888 18.0833 14.2249 18.2083 14.1222C18.5861 13.8111 19.175 13.6055 19.7389 13.5861C19.8027 13.5861 20.0139 13.5972 20.2111 13.6111C20.7777 13.6583 21.1639 13.7972 21.5361 14.0944C21.8166 14.3166 22.2416 14.8388 22.2 14.9083C22.1722 14.9499 21.0639 15.6888 20.9916 15.7111C20.9472 15.7249 20.9166 15.7083 20.8555 15.6361C20.4777 15.1833 20.325 15.0861 19.9583 15.0638C19.6972 15.0472 19.5583 15.0777 19.3833 15.1944C19.2 15.3166 19.1111 15.5027 19.1111 15.7611C19.1138 16.1388 19.2583 16.3166 19.7916 16.5805C20.1361 16.7499 20.4305 16.8888 20.4527 16.8888C20.4861 16.8888 21.2 17.2444 21.3861 17.3555C22.2527 17.8638 22.6055 18.3861 22.6972 19.2861C22.7639 19.9638 22.5722 20.5833 22.1555 21.0222Z" fill="white"/>
</svg>
