<svg width="32" height="32" viewBox="0 0 32 32" fill="none" xmlns="http://www.w3.org/2000/svg">
<path d="M24.6687 9.7424L16.4702 24.6568C16.3009 24.9648 15.866 24.9666 15.6942 24.6602L7.33313 9.74379C7.14592 9.4099 7.4266 9.00541 7.79857 9.0731L16.0059 10.5655C16.0583 10.575 16.1119 10.5749 16.1642 10.5652L24.1999 9.07519C24.5706 9.00645 24.8526 9.40782 24.6687 9.7424Z" fill="url(#paint0_linear_0_5041)"/>
<path d="M19.9154 7.11546L13.8483 8.32492C13.7999 8.33458 13.7559 8.36035 13.7234 8.39819C13.6909 8.43603 13.6717 8.48379 13.6688 8.53396L13.2956 14.9465C13.2935 14.9816 13.2995 15.0168 13.3132 15.0492C13.3268 15.0816 13.3477 15.1103 13.3742 15.133C13.4006 15.1558 13.4319 15.1719 13.4656 15.1802C13.4992 15.1885 13.5343 15.1887 13.5681 15.1808L15.2572 14.7842C15.4153 14.7471 15.5581 14.8887 15.5256 15.0504L15.0237 17.5505C14.99 17.7187 15.1452 17.8626 15.3067 17.8127L16.3501 17.4902C16.5118 17.4403 16.6673 17.5845 16.633 17.7529L15.8355 21.68C15.7856 21.9257 16.1068 22.0596 16.2407 21.849L16.3302 21.7084L21.274 11.671C21.3569 11.5029 21.214 11.3113 21.0327 11.347L19.2939 11.6883C19.1305 11.7204 18.9915 11.5656 19.0376 11.403L20.1724 7.40073C20.2186 7.23774 20.079 7.08286 19.9155 7.11546H19.9154Z" fill="url(#paint1_linear_0_5041)"/>
<defs>
<linearGradient id="paint0_linear_0_5041" x1="7.12899" y1="10.2764" x2="16.1691" y2="22.3445" gradientUnits="userSpaceOnUse">
<stop stop-color="#41D1FF"/>
<stop offset="1" stop-color="#BD34FE"/>
</linearGradient>
<linearGradient id="paint1_linear_0_5041" x1="16.7665" y1="7.44385" x2="18.6478" y2="20.1287" gradientUnits="userSpaceOnUse">
<stop stop-color="#FFEA83"/>
<stop offset="0.083" stop-color="#FFDD35"/>
<stop offset="1" stop-color="#FFA800"/>
</linearGradient>
</defs>
</svg>
